<?xml version="1.0" standalone="no"?>
<!DOCTYPE svg PUBLIC "-//W3C//DTD SVG 20010904//EN"
 "http://www.w3.org/TR/2001/REC-SVG-20010904/DTD/svg10.dtd">
<svg version="1.0" xmlns="http://www.w3.org/2000/svg"
 width="300.000000pt" height="300.000000pt" viewBox="0 0 300.000000 300.000000"
 preserveAspectRatio="xMidYMid meet">
<metadata>
Created by potrace 1.10, written by Peter Selinger 2001-2011
</metadata>
<g transform="translate(0.000000,300.000000) scale(0.100000,-0.100000)"
fill="#000000" stroke="none">
<path d="M1115 2229 c-206 -27 -376 -104 -529 -240 -86 -77 -116 -146 -116
-264 0 -73 4 -96 20 -123 76 -124 293 -241 496 -268 34 -4 65 -17 96 -39 44
-32 45 -35 58 -111 45 -280 194 -501 388 -574 47 -18 72 -21 147 -18 123 6
184 35 286 138 92 93 155 210 195 365 23 87 27 120 27 255 0 134 -4 168 -26
252 -30 116 -67 202 -117 278 -20 30 -50 75 -66 99 -31 47 -119 118 -194 156
-167 84 -438 122 -665 94z"/>
</g>
</svg>
